<!--?xml version="1.0" encoding="utf-8"?-->
<!-- Generator: Adobe Illustrator 19.1.1, SVG Export Plug-In . SVG Version: 6.00 Build 0)  -->
<svg version="1.1" id="_x31_0" xmlns="http://www.w3.org/2000/svg" xmlns:xlink="http://www.w3.org/1999/xlink" x="0px" y="0px" viewBox="0 0 512 512" style="width: 256px; height: 256px; opacity: 1;" xml:space="preserve">
<style type="text/css">
	.st0{fill:#374149;}
</style>
<g>
	<path class="st0" d="M256.042,147.434c-30.679,0-59.461,11.953-81.09,33.578c-21.633,21.633-33.578,50.418-33.578,81.007
		c0,30.68,11.946,59.462,33.578,81.094l0.359,0.363c2.625,2.527,5.52,5.066,8.688,7.598l4.074,44.707
		c-2.262,1.094-4.16,2.722-5.519,4.804c-1.809,2.895-2.446,6.332-1.629,9.684l0.633,3.168c1.086,4.707,4.613,8.141,8.957,9.414
		l0.726,7.692l-0.633,0.175c-6.878,1.543-11.222,8.418-9.683,15.305l0.633,3.157c0.816,3.355,2.805,6.16,5.703,8.062
		c1.992,1.266,4.254,1.898,6.606,1.988l2.171,24.074h17.469C220.475,500.594,237.132,512,256.042,512
		c18.918,0,35.66-11.313,42.543-28.695h17.375l4.797-52.133l0.722-0.18c6.883-1.539,11.226-8.418,9.684-15.293l-0.719-3.168
		c-0.906-3.98-3.625-7.148-7.242-8.778l0.902-9.414c5.34-2.535,8.422-8.418,7.059-14.39l-0.719-3.172
		c-0.637-2.622-2.082-4.977-4.168-6.786l1.813-18.918c3.074-2.531,6.066-5.156,8.961-7.961
		c21.629-21.633,33.578-50.414,33.578-81.094c0-30.59-11.95-59.374-33.578-81.007C315.417,159.386,286.635,147.434,256.042,147.434z
		 M296.683,370.004l-0.543,5.961l-69.66,15.633l-8.988,1.996l-2.086-23.602h74.598L296.683,370.004z M220.745,428.625l-1.449-15.187
		l74.945-16.746l-1.453,15.75l-64.086,14.414L220.745,428.625z M285.191,343.379c0,0,0,4.527,0,10.504h-58.29
		c0-5.977,0-10.504,0-10.504c-6.699-2.981-20.722-11.129-31.042-21.176c-15.387-15.386-24.981-36.656-24.981-60.184
		c0-23.441,9.594-44.71,24.981-60.191c15.386-15.382,36.656-24.89,60.183-24.89c23.446,0,44.711,9.508,60.191,24.89
		c15.383,15.481,24.887,36.75,24.887,60.191c0,23.528-9.504,44.798-24.887,60.184C305.823,332.25,291.796,340.398,285.191,343.379z
		 M272.335,453.801v12.855c-0.269,8.778-7.422,15.832-16.293,15.832c-9.05,0-16.378-7.234-16.378-16.285v-12.402h-16.653
		l-0.453-5.344l68.332-15.289l-1.898,20.633H272.335z" style="fill: rgb(0, 143, 62);"></path>
	<path class="st0" d="M277.315,258.125c-1.902-0.633-3.894,0-5.07,1.629c-0.722,0.997-1.449,2.168-2.262,3.622
		c-2.894,4.793-6.879,11.496-12.851,11.496c-6.79,0-12.766-8.508-15.84-13.035c-0.633-0.817-1.086-1.539-1.535-2.082
		c-1.18-1.629-3.172-2.262-5.07-1.629c-2.082,0.629-3.442,2.809-3.262,5.157l13.035,67.703l6.336-1l0.179-0.086h0.09l-6.063-31.5
		l-2.804-14.742l-2.262-12.652c4.059,4.918,9.79,10.015,17.196,10.015c5.699,0,9.957-3.074,13.121-6.691
		c0.504-0.504,0.906-1.074,1.34-1.617c0.258-0.274,0.523-0.539,0.797-0.793l-8.926,56.531l-0.27,1.449v0.086l6.609,0.91
		l10.766-67.34v-0.273C280.753,260.934,279.398,258.754,277.315,258.125z" style="fill: rgb(0, 143, 62);"></path>
	<path class="st0" d="M255.975,82.754c5.477,0.012,10.016-4.218,10.398-9.679l4.195-61.969c0.414-5.984-4.328-11.066-10.32-11.078
		L252.218,0c-6-0.027-10.762,5.027-10.398,11.02l3.832,61.992C245.987,78.473,250.503,82.738,255.975,82.754z" style="fill: rgb(0, 143, 62);"></path>
	<path class="st0" d="M154.398,124.461c3.886-3.855,4.109-10.066,0.507-14.179l-40.847-46.797c-0.363-0.418-0.856-0.61-1.27-0.958
		c-0.301-0.254-0.61-0.488-0.934-0.703c-0.938-0.621-1.902-1.058-2.957-1.339c-0.274-0.078-0.547-0.149-0.829-0.199
		c-3.214-0.586-6.633,0.16-9.148,2.656l-5.695,5.664c-4.25,4.226-4.047,11.172,0.442,15.145l46.55,41.129
		C144.311,128.5,150.523,128.317,154.398,124.461z" style="fill: rgb(0, 143, 62);"></path>
	<path class="st0" d="M418.811,69.602l-5.656-5.699c-2.508-2.519-5.934-3.285-9.164-2.711c-0.282,0.051-0.555,0.122-0.828,0.196
		c-1.051,0.277-2.012,0.706-2.946,1.32c-0.328,0.211-0.633,0.442-0.938,0.691c-0.41,0.344-0.902,0.531-1.27,0.946l-41.129,46.55
		c-3.625,4.098-3.446,10.309,0.414,14.192c3.855,3.878,10.062,4.098,14.187,0.496l46.797-40.84
		C422.799,80.789,423.046,73.855,418.811,69.602z" style="fill: rgb(0, 143, 62);"></path>
</g>
</svg>
